<svg width="117" height="39" viewBox="0 0 117 39" fill="none" xmlns="http://www.w3.org/2000/svg">
<path d="M109.502 1.59003C111.601 1.59003 113.025 1.9847 113.856 2.79675C114.687 3.60834 115.091 5.00291 115.091 7.05995V31.5929C115.091 33.6441 114.689 35.0308 113.861 35.8325C113.033 36.6349 111.607 37.0249 109.503 37.0249H7.12034C5.02881 37.0249 3.61909 36.6383 2.81081 35.843C2.00253 35.0477 1.60966 33.6596 1.60966 31.5994V7.05995C1.60966 4.70148 1.87031 3.40243 2.48118 2.71611C3.16506 1.9479 4.64135 1.59003 7.12735 1.59003H109.502ZM109.502 0H7.12735C1.01708 0 0 2.08986 0 7.05995V31.5993C0 36.5656 2.09279 38.615 7.12034 38.615H109.503C114.534 38.615 116.7 36.5628 116.7 31.5929V7.05995C116.7 2.08986 114.534 0 109.502 0Z" fill="#5B2C91"/>
<path fill-rule="evenodd" clip-rule="evenodd" d="M30.426 24.0365C29.8383 25.3234 29.5569 25.8979 28.8003 27.0352C27.7441 28.6233 26.2561 30.6007 24.4122 30.6173C22.7732 30.6323 22.3525 29.5638 20.1288 29.5758C17.9051 29.5878 17.4406 30.636 15.8016 30.6213C13.9575 30.6046 12.5473 28.8185 11.4912 27.231C8.53843 22.7909 8.22995 17.58 10.0507 14.8099C11.3451 12.8411 13.3863 11.6887 15.3063 11.6887C17.2607 11.6887 18.4895 12.7477 20.1055 12.7477C21.6729 12.7477 22.6286 11.687 24.888 11.687C26.5961 11.687 28.4059 12.6055 29.6956 14.1946C25.4706 16.4817 26.1566 22.4429 30.426 24.0365Z" fill="#5B2C91"/>
<path fill-rule="evenodd" clip-rule="evenodd" d="M23.1737 9.91347C23.9942 8.87269 24.6182 7.40214 24.3919 5.8999C23.0512 5.9911 21.482 6.83393 20.5659 7.93275C19.7345 8.9305 19.0482 10.41 19.3155 11.8477C20.7795 11.8925 22.2942 11.0288 23.1737 9.91347Z" fill="#5B2C91"/>
<path fill-rule="evenodd" clip-rule="evenodd" d="M106.28 26.1218H100.344C100.367 26.9168 100.654 27.6139 101.206 28.0713C101.705 28.4824 102.352 28.6699 103.147 28.6699C104.028 28.6699 104.825 28.5226 105.547 28.241L105.858 29.5955C105.019 29.9606 104.021 30.1349 102.87 30.1349C101.493 30.1349 100.409 29.735 99.6207 28.9331C98.8336 28.1312 98.4367 27.0537 98.4367 25.7035C98.4367 24.3739 98.8048 23.2721 99.5357 22.3875C100.309 21.4479 101.347 20.9783 102.652 20.9783C103.938 20.9783 104.908 21.4477 105.565 22.3873C106.088 23.1374 106.353 24.0984 106.353 25.1965C106.353 25.5437 106.327 25.8946 106.28 26.1218ZM97.8446 22.8951C97.7296 22.8598 97.4246 22.8454 97.2063 22.8454C96.5102 22.8454 95.9667 23.1044 95.5872 23.6223C95.2565 24.0817 95.0852 24.6521 95.0852 25.3578V29.8697H93.1306V23.9428C93.1306 22.9353 93.0883 22.0331 93.0533 21.1246H94.775L94.8486 22.9417H94.9027C95.1096 22.3739 95.4376 21.8574 95.8921 21.5104C96.3318 21.193 96.8256 21.0205 97.3382 21.0205C97.5195 21.0205 97.7296 21.0094 97.8446 21.0331V22.8951ZM90.6906 28.8348C89.87 29.7254 88.783 30.1712 87.4303 30.1712C86.1211 30.1712 85.077 29.7432 84.3019 28.8864C83.5276 28.0322 83.1413 26.9481 83.1413 25.6468C83.1413 24.285 83.5402 23.1674 84.3401 22.3C85.1414 21.4279 86.2162 20.9995 87.5715 20.9995C88.8834 20.9995 89.9329 21.4233 90.7268 22.2841C91.4816 23.1119 91.8605 24.1891 91.8605 25.5027C91.8606 26.8579 91.4724 27.9635 90.6906 28.8348ZM82.5528 22.7146H80.4832V26.9161C80.4832 28.0012 80.8242 28.5391 81.5937 28.5391C81.9478 28.5391 82.2149 28.5135 82.4492 28.4539L82.4937 29.9343C82.1021 30.079 81.5843 30.1525 80.9491 30.1525C80.1712 30.1525 79.5355 29.9204 79.0971 29.4464C78.6533 28.9782 78.4137 28.1868 78.4137 27.0768V22.7146H77.1489V21.1246H78.4137V19.5668L80.4832 18.9874V21.1246H82.5528V22.7146V22.7146ZM75.5982 29.084C74.7903 29.7969 73.6702 30.1511 72.2335 30.1511C70.902 30.1511 69.8373 29.8966 69.0333 29.3921L69.4929 27.7637C70.3594 28.2681 71.3114 28.5241 72.3472 28.5241C73.0955 28.5241 73.6741 28.3559 74.0899 28.0266C74.5029 27.696 74.7107 27.253 74.7107 26.691C74.7107 26.2031 74.5395 25.7865 74.1996 25.4467C73.8545 25.1096 73.2911 24.7982 72.4962 24.506C70.3366 23.712 69.2548 22.5477 69.2548 21.0158C69.2548 20.0147 69.6321 19.1916 70.3969 18.5529C71.1603 17.9151 72.1708 17.5942 73.4303 17.5942C74.5534 17.5942 75.4884 17.7888 76.2347 18.1722L75.7353 19.7655C75.0393 19.3926 74.2481 19.2035 73.3658 19.2035C72.6682 19.2035 72.1213 19.3788 71.7278 19.7087C71.3989 20.0146 71.2337 20.3825 71.2337 20.8153C71.2337 21.2947 71.4232 21.6947 71.801 22.0129C72.1318 22.3012 72.7305 22.613 73.5946 22.9505C74.6609 23.3694 75.4397 23.8672 75.9423 24.436C76.4417 25.0026 76.6933 25.7072 76.6933 26.5504C76.6931 27.5893 76.3257 28.4361 75.5982 29.084ZM64.1661 29.0159C63.4288 29.7848 62.5088 30.1711 61.4144 30.1711C60.2361 30.1711 59.4427 29.7558 58.8678 28.92V33.6176H56.9132V24.0666C56.9132 23.1264 56.8768 22.2603 56.8292 21.1246H58.5649L58.6795 22.601H58.7135C59.3776 21.5788 60.3755 21.0151 61.7191 21.0151C62.7701 21.0151 63.6464 21.4139 64.3483 22.2363C65.0525 23.0547 65.4028 24.1332 65.4028 25.4715C65.4028 26.9715 64.9916 28.1452 64.1661 29.0159ZM54.3838 29.0159C53.6483 29.7848 52.7299 30.1711 51.6385 30.1711C50.4566 30.1711 49.6697 29.7558 49.0948 28.92V33.6176H47.1403V24.0666C47.1403 23.1264 47.095 22.2603 47.0447 21.1246H48.7852L48.8946 22.601H48.929C49.5921 21.5788 50.5919 21.0151 51.9374 21.0151C52.9876 21.0151 53.8616 21.4139 54.5682 22.2363C55.268 23.0547 55.6204 24.1332 55.6204 25.4715C55.6204 26.9715 55.2093 28.1452 54.3838 29.0159ZM43.8027 29.8697L42.6498 26.3489H38.6364L37.5356 29.8697H35.4858L39.4579 17.7174H41.9155L45.9114 29.8697H43.8027ZM102.505 22.333C101.86 22.333 101.335 22.6598 100.93 23.1875C100.601 23.6087 100.403 24.0775 100.344 24.7589H104.465C104.476 24.0775 104.351 23.6286 104.083 23.2041C103.739 22.6632 103.212 22.333 102.505 22.333ZM40.6326 19.421H40.5981C40.4737 19.9888 40.281 20.7447 40.0098 21.7594L38.9838 24.9861H42.2987L41.2589 21.7594C41.1463 21.4322 40.9364 20.5567 40.6326 19.421ZM61.0784 22.5505C60.5882 22.5505 60.1502 22.7091 59.7516 23.0285C59.3546 23.3525 59.0871 23.7716 58.9641 24.2906C58.9033 24.5339 58.8678 24.7311 58.8678 24.8892V26.3528C58.8678 26.9935 59.0701 27.5351 59.4688 27.9754C59.8649 28.4117 60.3852 28.6332 61.0175 28.6332C61.7666 28.6332 62.3474 28.3515 62.7632 27.783C63.1793 27.2156 63.3889 26.468 63.3889 25.5364C63.3889 24.6821 63.1924 23.9755 62.8028 23.422C62.3721 22.8454 61.7978 22.5505 61.0784 22.5505ZM87.4993 22.4288C86.7075 22.4288 86.1023 22.7759 85.6895 23.4748C85.3313 24.0499 85.156 24.7522 85.156 25.5825C85.156 26.392 85.3312 27.0819 85.6895 27.6584C86.1125 28.356 86.7115 28.7031 87.4846 28.7031C88.2369 28.7031 88.8319 28.3512 89.2569 27.6366C89.6257 27.053 89.8097 26.3526 89.8097 25.5488C89.8097 24.744 89.633 24.0499 89.281 23.4747C88.86 22.7759 88.2698 22.4288 87.4993 22.4288ZM51.2935 22.5505C50.8059 22.5505 50.3653 22.7091 49.9672 23.0285C49.5692 23.3525 49.3095 23.7716 49.1866 24.2906C49.1265 24.5339 49.095 24.7311 49.095 24.8892V26.3528C49.095 26.9935 49.2911 27.5351 49.6906 27.9754C50.0867 28.4117 50.6044 28.6332 51.2383 28.6332C51.9818 28.6332 52.5664 28.3515 52.9809 27.783C53.3961 27.2156 53.602 26.468 53.602 25.5364C53.602 24.6821 53.4091 23.9755 53.0177 23.422C52.588 22.8454 52.015 22.5505 51.2935 22.5505Z" fill="#5B2C91"/>
<path d="M38.0916 12.9293L37.5432 14.7134H36.3423L38.3848 8.41772H39.8694L41.9403 14.7134H40.6922L40.1153 12.9293H38.0916V12.9293ZM39.9168 12.0607L39.4156 10.5101C39.2927 10.1271 39.1886 9.69747 39.094 9.33313H39.0751C38.9805 9.69747 38.8859 10.1365 38.7725 10.5101L38.2808 12.0607H39.9168Z" fill="#5B2C91"/>
<path d="M43.2649 10.1646L44.012 12.4717C44.1444 12.8734 44.2389 13.2377 44.324 13.6113H44.3524C44.4375 13.2377 44.5415 12.8827 44.6644 12.4717L45.3926 10.1646H46.6219L44.863 14.7135H43.7189L42.0073 10.1646H43.2649V10.1646Z" fill="#5B2C91"/>
<path d="M49.8657 14.7135L49.79 14.2091H49.7616C49.478 14.564 48.9957 14.8163 48.4 14.8163C47.4733 14.8163 46.9531 14.1531 46.9531 13.4618C46.9531 12.313 47.9839 11.7338 49.686 11.7431V11.6684C49.686 11.3695 49.5631 10.8744 48.7499 10.8744C48.2959 10.8744 47.8231 11.0145 47.5111 11.2107L47.2841 10.4635C47.6246 10.2579 48.2203 10.0618 48.9484 10.0618C50.4236 10.0618 50.8491 10.9865 50.8491 11.9767V13.6207C50.8491 14.0316 50.8681 14.4333 50.9153 14.7135H49.8657ZM49.7144 12.4904C48.8917 12.4717 48.1068 12.6492 48.1068 13.3404C48.1068 13.7888 48.4 13.9942 48.7687 13.9942C49.2321 13.9942 49.5725 13.6953 49.6766 13.3685C49.7048 13.2844 49.7144 13.1909 49.7144 13.1162V12.4904V12.4904Z" fill="#5B2C91"/>
<path d="M53.2511 8.08154H52.0786V14.7135H53.2511V8.08154Z" fill="#5B2C91"/>
<path d="M55.7477 8.89421C55.7477 9.23982 55.4925 9.51069 55.0858 9.51069C54.6981 9.51069 54.4429 9.23982 54.4429 8.89421C54.4429 8.5393 54.7075 8.26831 55.0952 8.26831C55.4925 8.26831 55.7383 8.5393 55.7477 8.89421ZM54.509 10.1645H55.6815V14.7135H54.509V10.1645Z" fill="#5B2C91"/>
<path d="M56.8921 14.7136C56.9109 14.4053 56.9299 13.9009 56.9299 13.4339V8.08154H58.093V10.7904H58.112C58.3956 10.3514 58.8968 10.0618 59.5871 10.0618C60.7124 10.0618 61.516 10.9865 61.5065 12.3691C61.5065 14.0037 60.4569 14.8163 59.4167 14.8163C58.821 14.8163 58.2915 14.5921 57.9606 14.0317H57.9416L57.8848 14.7136H56.8921V14.7136ZM58.093 12.8361C58.093 12.9294 58.1024 13.0229 58.1214 13.1069C58.2443 13.5646 58.6509 13.9102 59.1521 13.9102C59.8802 13.9102 60.3247 13.3311 60.3247 12.4157C60.3247 11.6124 59.937 10.9586 59.1615 10.9586C58.6887 10.9586 58.2632 11.2949 58.1308 11.7993C58.112 11.8833 58.093 11.9861 58.093 12.0982V12.8361Z" fill="#5B2C91"/>
<path d="M63.6349 8.08154H62.4624V14.7135H63.6349V8.08154Z" fill="#5B2C91"/>
<path d="M65.7155 12.7613C65.7439 13.5833 66.3963 13.9383 67.1339 13.9383C67.6729 13.9383 68.0607 13.8635 68.4106 13.7327L68.5808 14.5267C68.1835 14.6856 67.6351 14.8069 66.9733 14.8069C65.4792 14.8069 64.5996 13.9009 64.5996 12.5092C64.5996 11.2482 65.375 10.0618 66.8503 10.0618C68.3444 10.0618 68.836 11.2761 68.836 12.2755C68.836 12.4904 68.8172 12.6585 68.7983 12.7613H65.7155V12.7613ZM67.7391 11.958C67.7485 11.5377 67.5594 10.8464 66.7839 10.8464C66.0652 10.8464 65.7627 11.491 65.7153 11.958H67.7391Z" fill="#5B2C91"/>
<path d="M76.1079 12.3971C76.1079 14.0691 74.9164 14.8163 73.7437 14.8163C72.4388 14.8163 71.4365 13.9289 71.4365 12.4718C71.4365 10.9772 72.4293 10.0618 73.8195 10.0618C75.1906 10.0618 76.1079 11.0146 76.1079 12.3971ZM72.6376 12.4437C72.6376 13.3218 73.0724 13.9849 73.7817 13.9849C74.4435 13.9849 74.907 13.3405 74.907 12.425C74.907 11.7152 74.5854 10.9026 73.7911 10.9026C72.9685 10.9026 72.6376 11.6871 72.6376 12.4437Z" fill="#5B2C91"/>
<path d="M77.0637 11.5189C77.0637 10.9959 77.054 10.5568 77.0259 10.1646H78.0471L78.1039 10.8464H78.1322C78.3309 10.4914 78.832 10.0618 79.5979 10.0618C80.4016 10.0618 81.2339 10.5755 81.2339 12.014V14.7135H80.0708V12.1448C80.0708 11.4909 79.825 10.9959 79.1914 10.9959C78.7281 10.9959 78.4066 11.3228 78.2836 11.6684C78.2459 11.7712 78.2363 11.9113 78.2363 12.042V14.7135H77.0639V11.5189H77.0637Z" fill="#5B2C91"/>
<path d="M85.7635 8.86621V10.1646H86.8699V11.024H85.7635V13.0322C85.7635 13.5834 85.9148 13.8729 86.3592 13.8729C86.5579 13.8729 86.7091 13.8448 86.8131 13.8169L86.832 14.6949C86.6618 14.7602 86.3592 14.807 85.9905 14.807C85.5648 14.807 85.2055 14.6669 84.9881 14.4334C84.7422 14.1718 84.6287 13.7608 84.6287 13.163V11.024H83.9668V10.1646H84.6287V9.13708L85.7635 8.86621Z" fill="#5B2C91"/>
<path d="M87.7495 8.08154H88.922V10.7904H88.941C89.0828 10.5755 89.2719 10.3981 89.5178 10.2674C89.7448 10.1365 90.019 10.0618 90.3121 10.0618C91.097 10.0618 91.9196 10.5755 91.9196 12.0328V14.7135H90.7566V12.1635C90.7566 11.5003 90.5107 11.0053 89.8677 11.0053C89.4138 11.0053 89.0923 11.3042 88.9694 11.6497C88.9317 11.7431 88.9222 11.8647 88.9222 11.9954V14.7135H87.7496V8.08154H87.7495Z" fill="#5B2C91"/>
<path d="M93.9816 12.7613C94.01 13.5833 94.6624 13.9383 95.4 13.9383C95.939 13.9383 96.3268 13.8635 96.6767 13.7327L96.8469 14.5267C96.4496 14.6856 95.9012 14.8069 95.2393 14.8069C93.7453 14.8069 92.8657 13.9009 92.8657 12.5092C92.8657 11.2482 93.6411 10.0618 95.1164 10.0618C96.6105 10.0618 97.1021 11.2761 97.1021 12.2755C97.1021 12.4904 97.0832 12.6585 97.0643 12.7613H93.9816V12.7613ZM96.0053 11.958C96.0147 11.5377 95.8255 10.8464 95.0502 10.8464C94.3314 10.8464 94.0289 11.491 93.9816 11.958H96.0053Z" fill="#5B2C91"/>
</svg>
