<svg width="117" height="39" viewBox="0 0 117 39" fill="none" xmlns="http://www.w3.org/2000/svg">
<path d="M109.502 1.59003C111.601 1.59003 113.025 1.9847 113.856 2.79675C114.687 3.60834 115.091 5.00291 115.091 7.05995V31.5929C115.091 33.6441 114.689 35.0308 113.861 35.8325C113.033 36.6349 111.607 37.0249 109.503 37.0249H7.12034C5.02881 37.0249 3.61909 36.6383 2.81081 35.843C2.00253 35.0477 1.60966 33.6596 1.60966 31.5994V7.05995C1.60966 4.70148 1.87031 3.40243 2.48118 2.71611C3.16505 1.9479 4.64134 1.59003 7.12735 1.59003H109.502ZM109.502 0H7.12735C1.01708 0 0 2.08986 0 7.05995V31.5993C0 36.5656 2.09279 38.615 7.12034 38.615H109.503C114.534 38.615 116.7 36.5628 116.7 31.5929V7.05995C116.7 2.08986 114.534 0 109.502 0Z" fill="#5B2C91"/>
<path d="M57.3354 22.1479C55.18 22.1479 53.4738 23.7448 53.4738 25.9624C53.4738 28.0914 55.18 29.777 57.3354 29.777C59.4907 29.777 61.1971 28.1801 61.1971 25.9624C61.1971 23.6559 59.4907 22.1479 57.3354 22.1479ZM57.3354 28.1801C56.1679 28.1801 55.18 27.2043 55.18 25.8737C55.18 24.5429 56.1679 23.5671 57.3354 23.5671C58.5028 23.5671 59.4907 24.4544 59.4907 25.8737C59.4907 27.2043 58.5028 28.1801 57.3354 28.1801ZM48.9835 22.1479C46.8282 22.1479 45.1218 23.7448 45.1218 25.9624C45.1218 28.0914 46.8282 29.777 48.9835 29.777C51.1389 29.777 52.8451 28.1801 52.8451 25.9624C52.8451 23.6559 51.1389 22.1479 48.9835 22.1479ZM48.9835 28.1801C47.816 28.1801 46.8282 27.2043 46.8282 25.8737C46.8282 24.5429 47.816 23.5671 48.9835 23.5671C50.151 23.5671 51.1389 24.4544 51.1389 25.8737C51.1389 27.2043 50.151 28.1801 48.9835 28.1801ZM39.015 23.3011V24.8979H42.8767C42.7869 25.7851 42.4277 26.4948 41.9786 26.9383C41.4399 27.4706 40.5418 28.0914 39.015 28.0914C36.5903 28.0914 34.7942 26.2286 34.7942 23.8333C34.7942 21.4382 36.6801 19.5754 39.015 19.5754C40.2724 19.5754 41.2601 20.1077 41.9786 20.7285L43.1461 19.5754C42.1582 18.6881 40.901 17.9785 39.1048 17.9785C35.8719 17.9785 33.0879 20.6399 33.0879 23.8333C33.0879 27.0269 35.8718 29.6884 39.1048 29.6884C40.901 29.6884 42.1582 29.156 43.2359 28.0027C44.3136 26.9383 44.6729 25.4303 44.6729 24.277C44.6729 23.922 44.6729 23.5672 44.5831 23.3011H39.015V23.3011ZM79.7868 24.5431C79.4276 23.6559 78.5295 22.1479 76.5538 22.1479C74.578 22.1479 72.9616 23.6559 72.9616 25.9624C72.9616 28.0914 74.5781 29.777 76.7334 29.777C78.4399 29.777 79.5175 28.7125 79.8766 28.0914L78.6194 27.2043C78.1703 27.8253 77.6315 28.2688 76.7334 28.2688C75.8353 28.2688 75.2966 27.914 74.8476 27.1156L79.9664 24.9866L79.7868 24.5431ZM74.5781 25.785C74.5781 24.3657 75.7455 23.5672 76.5539 23.5672C77.1825 23.5672 77.8112 23.922 77.9908 24.3657L74.5781 25.785ZM70.3572 29.4221H72.0637V18.3333H70.3572V29.4221ZM67.6631 22.9462C67.214 22.5027 66.4956 22.0591 65.5975 22.0591C63.7116 22.0591 61.9154 23.7446 61.9154 25.8737C61.9154 28.0026 63.6218 29.5996 65.5975 29.5996C66.4956 29.5996 67.214 29.156 67.5733 28.7123H67.6631V29.2447C67.6631 30.6641 66.8548 31.4624 65.5975 31.4624C64.6097 31.4624 63.8912 30.7528 63.7116 30.1317L62.2747 30.7528C62.7237 31.7286 63.8014 32.9704 65.6875 32.9704C67.6632 32.9704 69.2795 31.8173 69.2795 29.0671V22.3253H67.6631V22.9462ZM65.6873 28.1801C64.5199 28.1801 63.532 27.2043 63.532 25.8737C63.532 24.5429 64.5199 23.5671 65.6873 23.5671C66.8547 23.5671 67.7529 24.5429 67.7529 25.8737C67.7529 27.2043 66.8548 28.1801 65.6873 28.1801ZM87.5999 18.3333H83.5586V29.4221H85.265V25.2528H87.5999C89.4857 25.2528 91.2818 23.922 91.2818 21.793C91.2818 19.6639 89.4858 18.3333 87.5999 18.3333ZM87.6897 23.6559H85.265V19.8415H87.6897C88.9471 19.8415 89.6656 20.906 89.6656 21.7042C89.5756 22.6801 88.8572 23.6559 87.6897 23.6559ZM98.0174 22.0592C96.76 22.0592 95.5028 22.5915 95.0539 23.7448L96.5804 24.3658C96.9397 23.7448 97.4786 23.5673 98.1072 23.5673C99.0052 23.5673 99.8134 24.0998 99.9032 24.9867V25.0754C99.6338 24.8979 98.9154 24.6319 98.197 24.6319C96.5803 24.6319 94.964 25.5191 94.964 27.1157C94.964 28.6239 96.311 29.5997 97.7479 29.5997C98.9154 29.5997 99.4542 29.0673 99.9032 28.5352H99.993V29.4222H101.61V25.1642C101.43 23.2124 99.9032 22.0592 98.0174 22.0592ZM97.8377 28.1801C97.2988 28.1801 96.4905 27.914 96.4905 27.2043C96.4905 26.3172 97.4785 26.0511 98.2867 26.0511C99.0052 26.0511 99.3643 26.2286 99.8133 26.406C99.6338 27.4705 98.7358 28.1801 97.8377 28.1801ZM107.267 22.3253L105.381 27.1156H105.292L103.316 22.3253H101.52L104.483 29.0671L102.777 32.7931H104.483L109.063 22.3253H107.267ZM92.18 29.4221H93.8863V18.3333H92.18V29.4221Z" fill="#5B2C91"/>
<path d="M36.2203 11.7466H39.0184C39.0344 11.8096 39.0475 11.8857 39.0583 11.975C39.0687 12.0642 39.0742 12.1535 39.0742 12.2427C39.0742 12.605 39.0184 12.9463 38.9067 13.2663C38.7952 13.5866 38.6198 13.8727 38.3806 14.1246C38.1256 14.3924 37.8199 14.5999 37.4639 14.7467C37.1078 14.8936 36.7013 14.9672 36.2442 14.9672C35.8298 14.9672 35.4391 14.8936 35.0724 14.7467C34.7058 14.5999 34.3868 14.3951 34.1158 14.1325C33.8447 13.8701 33.6296 13.559 33.4701 13.1994C33.3106 12.8398 33.231 12.4474 33.231 12.0222C33.231 11.597 33.3106 11.2046 33.4701 10.845C33.6296 10.4855 33.8447 10.1744 34.1158 9.9118C34.3868 9.64945 34.7058 9.44467 35.0724 9.29771C35.4391 9.15074 35.8298 9.07715 36.2442 9.07715C36.7066 9.07715 37.1198 9.15585 37.4838 9.31338C37.8478 9.47091 38.1601 9.68874 38.4205 9.967L37.6791 10.6835C37.493 10.4894 37.2858 10.341 37.0574 10.2387C36.8288 10.1362 36.5551 10.0851 36.2363 10.0851C35.9759 10.0851 35.7287 10.1311 35.4948 10.2229C35.261 10.3148 35.0564 10.4447 34.8811 10.6127C34.7058 10.7808 34.5662 10.9842 34.4626 11.2229C34.359 11.4619 34.3071 11.7283 34.3071 12.0222C34.3071 12.3163 34.359 12.5826 34.4626 12.8214C34.5662 13.0604 34.7069 13.2637 34.8851 13.4317C35.0631 13.5998 35.269 13.7297 35.5029 13.8216C35.7366 13.9134 35.9864 13.9593 36.2522 13.9593C36.5551 13.9593 36.8115 13.9161 37.0215 13.8294C37.2313 13.7427 37.4108 13.6313 37.5596 13.4947C37.6658 13.4002 37.7574 13.2808 37.8346 13.1364C37.9115 12.9921 37.9713 12.8306 38.014 12.6521H36.2203V11.7466V11.7466Z" fill="#5B2C91"/>
<path d="M41.043 10.2111V11.5182H43.3308V12.5262H41.043V13.8334H43.5859V14.8412H39.9668V9.20312H43.5859V10.2111H41.043Z" fill="#5B2C91"/>
<path d="M45.7858 14.8412V10.2111H44.1914V9.20312H48.4563V10.2111H46.862V14.8412H45.7858Z" fill="#5B2C91"/>
<path d="M52.0518 9.20312H50.9756V14.8412H52.0518V9.20312Z" fill="#5B2C91"/>
<path d="M54.4113 14.8412V10.2111H52.8169V9.20312H57.0818V10.2111H55.4874V14.8412H54.4113Z" fill="#5B2C91"/>
<path d="M62.1436 14.9673C61.7184 14.9673 61.3238 14.8911 60.9598 14.7389C60.5956 14.5867 60.2809 14.3781 60.0151 14.1129C59.7493 13.8478 59.5408 13.5355 59.3894 13.1758C59.238 12.8163 59.1621 12.4317 59.1621 12.0222C59.1621 11.6127 59.2379 11.2282 59.3894 10.8687C59.541 10.5091 59.7494 10.1968 60.0151 9.93156C60.2809 9.66648 60.5956 9.45785 60.9598 9.30554C61.3238 9.15336 61.7184 9.07715 62.1436 9.07715C62.5686 9.07715 62.9633 9.15336 63.3275 9.30554C63.6914 9.45785 64.0062 9.66648 64.2721 9.93156C64.5378 10.1968 64.7464 10.5091 64.8978 10.8687C65.0492 11.2282 65.1251 11.6127 65.1251 12.0222C65.1251 12.4317 65.0493 12.8163 64.8978 13.1758C64.7464 13.5355 64.5377 13.8478 64.2721 14.1129C64.0062 14.3781 63.6914 14.5867 63.3275 14.7389C62.9633 14.8911 62.5686 14.9673 62.1436 14.9673ZM62.1436 13.9593C62.4094 13.9593 62.6578 13.9121 62.8888 13.8176C63.12 13.7231 63.3221 13.5919 63.4947 13.4238C63.6674 13.2559 63.803 13.0526 63.9013 12.8136C63.9996 12.5748 64.0488 12.3109 64.0488 12.0222C64.0488 11.7335 63.9996 11.4698 63.9013 11.2308C63.803 10.992 63.6674 10.7887 63.4947 10.6206C63.3221 10.4526 63.12 10.3213 62.8888 10.2269C62.6577 10.1324 62.4093 10.0851 62.1436 10.0851C61.8778 10.0851 61.6294 10.1324 61.3983 10.2269C61.1671 10.3213 60.965 10.4526 60.7924 10.6206C60.6195 10.7887 60.4841 10.992 60.3859 11.2308C60.2875 11.4698 60.2384 11.7335 60.2384 12.0222C60.2384 12.3109 60.2875 12.5748 60.3859 12.8136C60.4841 13.0526 60.6195 13.2559 60.7924 13.4238C60.965 13.5919 61.1671 13.7231 61.3983 13.8176C61.6295 13.9121 61.8778 13.9593 62.1436 13.9593Z" fill="#5B2C91"/>
<path d="M65.9937 9.20312H67.2452L69.541 12.9828H69.6048L69.541 11.8962V9.20312H70.6092V14.8412H69.4772L67.0538 10.8489H66.99L67.0538 11.9356V14.8412H65.9937V9.20312Z" fill="#5B2C91"/>
<path fill-rule="evenodd" clip-rule="evenodd" d="M24.9193 15.9073L10.9502 7.96826L21.9844 18.8116L24.9193 15.9073Z" fill="#5B2C91"/>
<path fill-rule="evenodd" clip-rule="evenodd" d="M9.65427 8.04932C9.60103 8.14495 9.54297 8.25545 9.54297 8.3772V30.8427C9.54297 30.9131 9.58011 30.9796 9.59919 31.042L21.2846 19.4786L9.65427 8.04932Z" fill="#5B2C91"/>
<path fill-rule="evenodd" clip-rule="evenodd" d="M21.9867 20.1428L10.5303 31.4797C10.5637 31.467 10.597 31.4521 10.6295 31.4337L25.1048 23.2068L21.9867 20.1428Z" fill="#5B2C91"/>
<path fill-rule="evenodd" clip-rule="evenodd" d="M30.3943 19.0188L25.7755 16.3938L22.6606 19.4761L25.9618 22.7201L30.3943 20.201C30.8558 19.9389 30.8558 19.2811 30.3943 19.0188Z" fill="#5B2C91"/>
</svg>
