<svg width="264" height="97" viewBox="0 0 264 97" fill="none" xmlns="http://www.w3.org/2000/svg">
<path d="M78.2324 55.5254C78.2324 54.8691 78.1309 54.2832 77.9277 53.7676C77.7402 53.2363 77.3887 52.7598 76.873 52.3379C76.373 51.9004 75.6621 51.4785 74.7402 51.0723C73.834 50.6504 72.6621 50.2129 71.2246 49.7598C69.6309 49.2598 68.1465 48.6973 66.7715 48.0723C65.3965 47.4473 64.1855 46.7207 63.1387 45.8926C62.1074 45.0645 61.3027 44.1113 60.7246 43.0332C60.1465 41.9395 59.8574 40.6738 59.8574 39.2363C59.8574 37.8301 60.1543 36.5488 60.748 35.3926C61.3574 34.2363 62.2168 33.2441 63.3262 32.416C64.4355 31.5723 65.7402 30.9238 67.2402 30.4707C68.7559 30.0176 70.4277 29.791 72.2559 29.791C74.7871 29.791 76.9746 30.252 78.8184 31.1738C80.6777 32.0957 82.1152 33.3457 83.1309 34.9238C84.1465 36.502 84.6543 38.2754 84.6543 40.2441H78.2324C78.2324 39.1816 78.0059 38.2441 77.5527 37.4316C77.1152 36.6191 76.4434 35.9785 75.5371 35.5098C74.6465 35.041 73.5215 34.8066 72.1621 34.8066C70.8496 34.8066 69.7559 35.002 68.8809 35.3926C68.0215 35.7832 67.373 36.3145 66.9355 36.9863C66.5137 37.6582 66.3027 38.4082 66.3027 39.2363C66.3027 39.8613 66.4512 40.4238 66.748 40.9238C67.0449 41.4082 67.4902 41.8691 68.084 42.3066C68.6777 42.7285 69.4121 43.127 70.2871 43.502C71.1777 43.8613 72.209 44.2207 73.3809 44.5801C75.2559 45.1426 76.8965 45.7676 78.3027 46.4551C79.7246 47.1426 80.9043 47.9238 81.8418 48.7988C82.7949 49.6738 83.5059 50.6582 83.9746 51.752C84.459 52.8457 84.7012 54.0879 84.7012 55.4785C84.7012 56.9473 84.4121 58.2598 83.834 59.416C83.2559 60.5723 82.4277 61.5566 81.3496 62.3691C80.2715 63.1816 78.9746 63.7988 77.459 64.2207C75.959 64.6426 74.2793 64.8535 72.4199 64.8535C70.7637 64.8535 69.123 64.6348 67.498 64.1973C65.8887 63.7441 64.4277 63.0723 63.1152 62.1816C61.8027 61.2754 60.7559 60.1348 59.9746 58.7598C59.1934 57.3691 58.8027 55.7441 58.8027 53.8848H65.2715C65.2715 54.9629 65.4434 55.8848 65.7871 56.6504C66.1465 57.4004 66.6465 58.0176 67.2871 58.502C67.9434 58.9707 68.709 59.3145 69.584 59.5332C70.459 59.752 71.4043 59.8613 72.4199 59.8613C73.7324 59.8613 74.8105 59.6816 75.6543 59.3223C76.5137 58.9473 77.1543 58.4316 77.5762 57.7754C78.0137 57.1191 78.2324 56.3691 78.2324 55.5254ZM100.592 64.8535C98.6699 64.8535 96.9434 64.541 95.4121 63.916C93.8809 63.291 92.5762 62.4238 91.498 61.3145C90.4355 60.1895 89.6152 58.8848 89.0371 57.4004C88.4746 55.9004 88.1934 54.291 88.1934 52.5723V51.6348C88.1934 49.6816 88.4746 47.9082 89.0371 46.3145C89.5996 44.7051 90.3965 43.3223 91.4277 42.166C92.459 41.0098 93.6934 40.1191 95.1309 39.4941C96.5684 38.8691 98.1543 38.5566 99.8887 38.5566C101.686 38.5566 103.271 38.8613 104.646 39.4707C106.021 40.0645 107.17 40.9082 108.092 42.002C109.014 43.0957 109.709 44.4082 110.178 45.9395C110.646 47.4551 110.881 49.1348 110.881 50.9785V53.5801H91.0059V49.3145H104.787V48.8457C104.756 47.8613 104.568 46.9629 104.225 46.1504C103.881 45.3223 103.35 44.666 102.631 44.1816C101.912 43.6816 100.982 43.4316 99.8418 43.4316C98.9199 43.4316 98.1152 43.6348 97.4277 44.041C96.7559 44.4316 96.1934 44.9941 95.7402 45.7285C95.3027 46.4473 94.9746 47.3066 94.7559 48.3066C94.5371 49.3066 94.4277 50.416 94.4277 51.6348V52.5723C94.4277 53.6348 94.5684 54.6191 94.8496 55.5254C95.1465 56.4316 95.5762 57.2207 96.1387 57.8926C96.7168 58.5488 97.4043 59.0645 98.2012 59.4395C99.0137 59.7988 99.9355 59.9785 100.967 59.9785C102.264 59.9785 103.436 59.7285 104.482 59.2285C105.545 58.7129 106.467 57.9551 107.248 56.9551L110.365 60.1895C109.834 60.9707 109.115 61.7207 108.209 62.4395C107.318 63.1582 106.24 63.7441 104.975 64.1973C103.709 64.6348 102.248 64.8535 100.592 64.8535ZM121.1 44.4395V64.3848H114.912V39.0254H120.725L121.1 44.4395ZM120.115 50.791H118.287C118.303 48.9473 118.553 47.2754 119.037 45.7754C119.521 44.2754 120.201 42.9863 121.076 41.9082C121.967 40.8301 123.021 40.002 124.24 39.4238C125.459 38.8457 126.818 38.5566 128.318 38.5566C129.537 38.5566 130.639 38.7285 131.623 39.0723C132.607 39.416 133.451 39.9629 134.154 40.7129C134.873 41.4629 135.42 42.4473 135.795 43.666C136.186 44.8691 136.381 46.3535 136.381 48.1191V64.3848H130.146V48.0723C130.146 46.916 129.975 46.002 129.631 45.3301C129.303 44.6582 128.818 44.1816 128.178 43.9004C127.553 43.6191 126.779 43.4785 125.857 43.4785C124.904 43.4785 124.068 43.6738 123.35 44.0645C122.646 44.4395 122.053 44.9629 121.568 45.6348C121.1 46.3066 120.74 47.0801 120.49 47.9551C120.24 48.8301 120.115 49.7754 120.115 50.791ZM157.053 58.9941V28.3848H163.287V64.3848H157.662L157.053 58.9941ZM140.764 52.0098V51.5176C140.764 49.5801 140.982 47.8223 141.42 46.2441C141.873 44.6504 142.529 43.2832 143.389 42.1426C144.248 41.002 145.287 40.1191 146.506 39.4941C147.74 38.8691 149.139 38.5566 150.701 38.5566C152.217 38.5566 153.537 38.8613 154.662 39.4707C155.803 40.0801 156.771 40.9473 157.568 42.0723C158.381 43.1973 159.029 44.5332 159.514 46.0801C159.998 47.6113 160.35 49.2988 160.568 51.1426V52.4785C160.35 54.2754 159.998 55.9238 159.514 57.4238C159.029 58.9238 158.381 60.2363 157.568 61.3613C156.771 62.4707 155.803 63.3301 154.662 63.9395C153.521 64.5488 152.186 64.8535 150.654 64.8535C149.107 64.8535 147.717 64.5332 146.482 63.8926C145.264 63.252 144.225 62.3535 143.365 61.1973C142.521 60.041 141.873 58.6816 141.42 57.1191C140.982 55.5566 140.764 53.8535 140.764 52.0098ZM146.975 51.5176V52.0098C146.975 53.1035 147.068 54.127 147.256 55.0801C147.443 56.0332 147.748 56.877 148.17 57.6113C148.592 58.3301 149.131 58.8926 149.787 59.2988C150.459 59.7051 151.271 59.9082 152.225 59.9082C153.443 59.9082 154.443 59.6426 155.225 59.1113C156.021 58.5645 156.639 57.8223 157.076 56.8848C157.514 55.9316 157.795 54.8613 157.92 53.6738V49.9941C157.857 49.0566 157.693 48.1895 157.428 47.3926C157.178 46.5957 156.818 45.9082 156.35 45.3301C155.896 44.752 155.334 44.2988 154.662 43.9707C153.99 43.6426 153.193 43.4785 152.271 43.4785C151.318 43.4785 150.506 43.6895 149.834 44.1113C149.162 44.5176 148.615 45.0879 148.193 45.8223C147.771 46.5566 147.459 47.4082 147.256 48.377C147.068 49.3457 146.975 50.3926 146.975 51.5176Z" fill="#312144"/>
<rect x="170.115" y="34.9497" width="7" height="45" transform="rotate(-45 170.115 34.9497)" fill="url(#paint0_linear_616_8554)"/>
<rect x="175.065" y="66.7695" width="7" height="45" transform="rotate(-135 175.065 66.7695)" fill="url(#paint1_linear_616_8554)"/>
<defs>
<linearGradient id="paint0_linear_616_8554" x1="173.615" y1="34.9497" x2="173.615" y2="79.9497" gradientUnits="userSpaceOnUse">
<stop stop-color="#D9D9D9"/>
<stop offset="0.384615" stop-color="#B890EC"/>
<stop offset="0.778846" stop-color="#430099"/>
</linearGradient>
<linearGradient id="paint1_linear_616_8554" x1="178.565" y1="66.7695" x2="178.565" y2="111.77" gradientUnits="userSpaceOnUse">
<stop stop-color="#D9D9D9"/>
<stop offset="0.341346" stop-color="#B890EC"/>
<stop offset="0.793269" stop-color="#430099"/>
</linearGradient>
</defs>
</svg>
